<svg xmlns="http://www.w3.org/2000/svg" viewBox="0 0 320 180"><rect width="320" height="180" fill="#e3edf5"/><circle cx="272" cy="32" r="15" fill="#ffe4a2"/><path d="M0 104Q90 70 180 107T320 98V180H0Z" fill="#8c775d"/><path d="M0 140Q110 100 215 148T320 130V180H0Z" fill="#9bbd8b"/><path d="M115 180Q160 145 157 115L177 113Q176 140 226 180" fill="#f2dfb6"/><path d="M25 85v50" stroke="#7b644d" stroke-width="5"/><circle cx="25" cy="85" r="20" fill="#8c775d"/><path d="M90 100v50" stroke="#7b644d" stroke-width="5"/><circle cx="90" cy="100" r="24" fill="#8c775d"/><path d="M155 85v50" stroke="#7b644d" stroke-width="5"/><circle cx="155" cy="85" r="28" fill="#8c775d"/><path d="M220 100v50" stroke="#7b644d" stroke-width="5"/><circle cx="220" cy="100" r="20" fill="#8c775d"/><path d="M285 85v50" stroke="#7b644d" stroke-width="5"/><circle cx="285" cy="85" r="24" fill="#8c775d"/></svg>